HIERARCHY
ROOT Hips
{
	OFFSET 0.00000 0.00000 0.00000
	CHANNELS 6 Xposition Yposition Zposition Zrotation Yrotation Xrotation 
	JOINT LHipJoint
	{
		OFFSET 0 0 0
		CHANNELS 3 Zrotation Yrotation Xrotation
		JOINT LeftUpLeg
		{
			OFFSET 1.28858 -1.83292 1.03970
			CHANNELS 3 Zrotation Yrotation Xrotation
			JOINT LeftLeg
			{
				OFFSET 2.47846 -6.80952 0.00000
				CHANNELS 3 Zrotation Yrotation Xrotation
				JOINT LeftFoot
				{
					OFFSET 2.75274 -7.56311 0.00000
					CHANNELS 3 Zrotation Yrotation Xrotation
					JOINT LeftToeBase
					{
						OFFSET 0.12848 -0.35301 1.68223
						CHANNELS 3 Zrotation Yrotation Xrotation
						End Site
						{
							OFFSET 0.00000 -0.00000 0.87311
						}
					}
				}
			}
		}
	}
	JOINT RHipJoint
	{
		OFFSET 0 0 0
		CHANNELS 3 Zrotation Yrotation Xrotation
		JOINT RightUpLeg
		{
			OFFSET -1.31183 -1.83292 1.03970
			CHANNELS 3 Zrotation Yrotation Xrotation
			JOINT RightLeg
			{
				OFFSET -2.44740 -6.72417 0.00000
				CHANNELS 3 Zrotation Yrotation Xrotation
				JOINT RightFoot
				{
					OFFSET -2.67343 -7.34519 0.00000
					CHANNELS 3 Zrotation Yrotation Xrotation
					JOINT RightToeBase
					{
						OFFSET -0.16914 -0.46471 1.77626
						CHANNELS 3 Zrotation Yrotation Xrotation
						End Site
						{
							OFFSET -0.00000 -0.00000 0.92777
						}
					}
				}
			}
		}
	}
	JOINT LowerBack
	{
		OFFSET 0 0 0
		CHANNELS 3 Zrotation Yrotation Xrotation
		JOINT Spine
		{
			OFFSET 0.01249 2.14252 0.03842
			CHANNELS 3 Zrotation Yrotation Xrotation
			JOINT Spine1
			{
				OFFSET -0.02957 2.14199 -0.03751
				CHANNELS 3 Zrotation Yrotation Xrotation
				JOINT Neck
				{
					OFFSET 0 0 0
					CHANNELS 3 Zrotation Yrotation Xrotation
					JOINT Neck1
					{
						OFFSET -0.01678 1.65709 -0.05476
						CHANNELS 3 Zrotation Yrotation Xrotation
						JOINT Head
						{
							OFFSET 0.07912 1.58331 -0.11843
							CHANNELS 3 Zrotation Yrotation Xrotation
							End Site
							{
								OFFSET 0.03298 1.73940 -0.04271
							}
						}
					}
				}
				JOINT LeftShoulder
				{
					OFFSET 0 0 0
					CHANNELS 3 Zrotation Yrotation Xrotation
					JOINT LeftArm
					{
						OFFSET 3.39556 1.16496 0.08673
						CHANNELS 3 Zrotation Yrotation Xrotation
						JOINT LeftForeArm
						{
							OFFSET 5.23910 -0.00000 -0.00000
							CHANNELS 3 Zrotation Yrotation Xrotation
							JOINT LeftHand
							{
								OFFSET 3.31467 -0.00000 0.00000
								CHANNELS 3 Zrotation Yrotation Xrotation
								JOINT LeftFingerBase
								{
									OFFSET 0 0 0
									CHANNELS 3 Zrotation Yrotation Xrotation
									JOINT LeftHandIndex1
									{
										OFFSET 0.96590 -0.00000 0.00000
										CHANNELS 3 Zrotation Yrotation Xrotation
										End Site
										{
											OFFSET 0.77873 -0.00000 0.00000
										}
									}
								}
								JOINT LThumb
								{
									OFFSET 0 0 0
									CHANNELS 3 Zrotation Yrotation Xrotation
									End Site
									{
										OFFSET 0.79062 -0.00000 0.79062
									}
								}
							}
						}
					}
				}
				JOINT RightShoulder
				{
					OFFSET 0 0 0
					CHANNELS 3 Zrotation Yrotation Xrotation
					JOINT RightArm
					{
						OFFSET -3.27193 1.31331 0.33940
						CHANNELS 3 Zrotation Yrotation Xrotation
						JOINT RightForeArm
						{
							OFFSET -5.30252 -0.00000 0.00000
							CHANNELS 3 Zrotation Yrotation Xrotation
							JOINT RightHand
							{
								OFFSET -3.67875 -0.00000 0.00000
								CHANNELS 3 Zrotation Yrotation Xrotation
								JOINT RightFingerBase
								{
									OFFSET 0 0 0
									CHANNELS 3 Zrotation Yrotation Xrotation
									JOINT RightHandIndex1
									{
										OFFSET -0.59481 -0.00000 0.00000
										CHANNELS 3 Zrotation Yrotation Xrotation
										End Site
										{
											OFFSET -0.47955 -0.00000 0.00000
										}
									}
								}
								JOINT RThumb
								{
									OFFSET 0 0 0
									CHANNELS 3 Zrotation Yrotation Xrotation
									End Site
									{
										OFFSET -0.48687 -0.00000 0.48687
									}
								}
							}
						}
					}
				}
			}
		}
	}
}
MOTION
Frames: 10
Frame Time: .0083333
12.9374 22.9362 3.9547 -181.2330 -3.4853 -314.8590 0.0000 0.0000 0.0000 -1.8898 -18.4511 -75.2001 10.7797 17.8256 62.0640 39.4855 0.0114 -166.4422 1.6651 8.1306 23.1113 0.0000 0.0000 0.0000 0.1269 12.2362 -79.2696 -9.1519 -16.9045 56.6140 -40.1480 -6.8278 -178.0973 -0.0928 1.9644 -5.4072 5.4284 1.5697 34.6176 1.1327 0.9411 14.0231 -1.9082 -1.0376 -1.9553 -4.7563 -0.2717 0.0956 4.6023 -3.1893 -32.2415 2.8457 -1.9529 -10.1304 0.0000 -0.0000 0.0000 -79.1934 -46.2945 67.4154 21.5713 -32.4891 -6.3540 -0.0000 0.0000 -39.4667 -15.8631 -21.4408 5.9302 -7.1250 0.0000 -0.0000 -27.1871 9.3822 25.5454 0.0000 -0.0000 0.0000 64.3530 26.7905 43.4884 -34.5820 44.5113 -14.5195 0.0000 -0.0000 -32.6809 25.3010 -29.0005 -12.9082 7.1250 -0.0000 -0.0000 54.4789 -51.0537 -10.9085
12.9359 23.0793 3.8577 -180.8090 -4.0274 -319.6430 0.0000 0.0000 0.0000 -1.9928 -19.0566 -75.5326 10.5364 17.7007 61.2667 39.5756 0.9702 -167.3041 1.7810 8.3943 23.9182 0.0000 0.0000 0.0000 -0.1272 12.4197 -80.2435 -8.7041 -16.6135 55.0610 -40.1753 -7.5298 -178.7204 -0.1569 2.5526 -7.0354 4.9095 1.6071 35.3529 0.9442 0.9065 14.1594 -1.8172 -1.0754 -2.0871 -4.4514 -0.2538 -0.1810 4.5421 -3.0869 -32.3114 2.7487 -1.8767 -10.1144 -0.0000 -0.0000 0.0000 -79.5826 -45.0338 65.8428 22.5865 -33.6335 -6.9079 -0.0000 0.0000 -40.6872 -15.8772 -22.0157 6.0859 -7.1250 0.0000 -0.0000 -27.1161 8.8531 25.7864 -0.0000 -0.0000 0.0000 65.6105 25.7640 43.5998 -36.5342 45.8771 -15.9048 0.0000 -0.0000 -35.1418 25.2702 -28.9188 -12.8588 7.1250 -0.0000 -0.0000 54.3811 -51.0029 -10.7923
12.9379 23.2330 3.7764 -180.1320 -4.6407 -324.5090 0.0000 0.0000 0.0000 -2.4073 -19.6222 -75.6633 10.2332 17.5389 60.2650 39.6724 2.0283 -168.2522 1.9279 8.7143 24.9058 0.0000 0.0000 0.0000 -0.5612 12.6047 -81.2181 -8.2485 -16.2991 53.4531 -40.1953 -8.0693 -179.2183 -0.1910 2.8148 -7.7636 4.1467 1.7027 36.0483 0.6863 0.8900 14.2061 -1.6772 -1.0909 -2.3052 -4.0614 -0.2559 -0.3549 4.4234 -3.0259 -32.4665 2.6232 -1.8163 -10.1505 -0.0000 -0.0000 0.0000 -79.4072 -43.6906 63.8509 24.2597 -35.4376 -7.8566 -0.0000 0.0000 -42.7608 -16.4998 -21.6714 6.2425 -7.1250 0.0000 -0.0000 -27.4952 9.1358 26.0807 -0.0000 -0.0000 0.0000 66.7945 24.5637 43.2327 -38.8676 47.3845 -17.6013 0.0000 -0.0000 -38.5654 24.4566 -29.3674 -12.5736 7.1250 -0.0000 -0.0000 54.1806 -51.4576 -11.4641
12.9425 23.3958 3.7127 -179.3920 -5.1253 -329.4270 0.0000 0.0000 0.0000 -2.8616 -20.0489 -75.6781 9.8745 17.3387 59.0682 39.7756 3.2716 -169.2308 2.0709 9.0123 25.8338 0.0000 0.0000 0.0000 -0.8895 12.7990 -82.1873 -7.7944 -15.9659 51.8187 -40.2117 -8.5418 -179.6803 -0.2287 3.0782 -8.4965 3.4049 1.8006 36.6901 0.4206 0.8985 14.1753 -1.5656 -1.0748 -2.5798 -3.6970 -0.3204 -0.4199 4.3484 -3.0706 -32.7976 2.5327 -1.7977 -10.2686 -0.0000 0.0000 0.0000 -78.7342 -42.3440 61.9879 26.6390 -37.8327 -9.2768 -0.0000 0.0000 -45.1786 -17.6173 -20.2772 6.2802 -7.1250 0.0000 -0.0000 -28.2930 10.3444 26.2875 -0.0000 0.0000 0.0000 67.7772 23.2416 42.6977 -41.6736 49.0308 -19.6937 0.0000 -0.0000 -42.4126 22.9724 -30.3119 -12.0763 7.1250 -0.0000 -0.0000 53.9241 -52.3788 -12.8342
12.9485 23.5649 3.6689 -178.7750 -5.3763 -334.3650 0.0000 0.0000 0.0000 -3.1113 -20.3448 -75.6770 9.4794 17.1065 57.7336 39.8841 4.6691 -170.1982 2.1795 9.2305 26.5189 0.0000 0.0000 0.0000 -0.9183 13.0111 -83.1291 -7.3695 -15.6353 50.2585 -40.2246 -8.9698 179.8422 -0.2951 3.4929 -9.6543 2.8861 1.8473 37.3816 0.1916 0.9302 13.9786 -1.5318 -1.0246 -2.8973 -3.2524 -0.3725 -0.3519 4.1785 -3.1264 -33.2741 2.4007 -1.7752 -10.4730 0.0000 -0.0000 0.0000 -77.7841 -41.1032 60.6828 29.5349 -40.4914 -11.1064 -0.0000 0.0000 -47.1211 -19.0061 -18.3073 6.1751 -7.1250 0.0000 -0.0000 -29.3474 12.0400 26.4140 0.0000 -0.0000 0.0000 68.4720 21.8835 42.3222 -44.8933 50.7161 -22.1561 0.0000 -0.0000 -45.9314 20.9350 -31.5350 -11.3148 7.1250 -0.0000 -0.0000 53.4907 -53.6020 -14.5344
12.9545 23.7367 3.6480 -178.3380 -5.4012 -339.3190 0.0000 0.0000 0.0000 -3.1119 -20.5825 -75.7004 9.0719 16.8538 56.3385 39.9994 6.1763 -171.1716 2.1955 9.2619 26.6180 0.0000 0.0000 0.0000 -0.6366 13.1774 -84.0217 -6.9984 -15.3306 48.8684 -40.2320 -9.3255 179.3322 -0.3588 3.8480 -10.6496 2.6183 1.8195 37.9403 0.0284 0.9688 13.8268 -1.5755 -0.9520 -3.2527 -2.8027 -0.3984 -0.1856 3.9675 -3.1453 -33.8139 2.2515 -1.7241 -10.7266 -0.0000 0.0000 0.0000 -76.8473 -40.0923 59.9537 32.4836 -42.9294 -13.0690 -0.0000 0.0000 -47.7949 -20.5775 -16.3254 6.0241 -7.1250 0.0000 -0.0000 -30.5321 13.7009 26.6240 -0.0000 0.0000 0.0000 68.8605 20.5699 42.3886 -48.2886 52.2815 -24.8139 0.0000 -0.0000 -48.2930 19.0885 -32.7732 -10.6100 7.1250 -0.0000 -0.0000 53.2285 -54.8108 -16.2018
12.9624 23.9101 3.6567 -178.0490 -5.2686 -344.2460 0.0000 0.0000 0.0000 -2.9005 -20.8222 -75.7871 8.6665 16.5883 54.9296 40.1237 7.7703 -172.2041 2.1596 9.1909 26.3942 0.0000 0.0000 0.0000 -0.1408 13.2998 -84.9517 -6.6847 -15.0606 47.6716 -40.2295 -9.6051 178.6599 -0.4318 4.2171 -11.6883 2.5035 1.7470 38.3532 -0.0653 1.0229 13.6614 -1.6337 -0.8569 -3.5692 -2.4140 -0.3915 0.0558 3.7503 -3.1088 -34.3959 2.1060 -1.6329 -11.0167 0.0000 0.0000 0.0000 -76.2232 -39.4228 59.7516 34.9345 -44.7653 -14.7672 -0.0000 0.0000 -46.8080 -21.8941 -15.3815 6.0845 -7.1250 0.0000 -0.0000 -31.4013 14.4166 27.1259 0.0000 0.0000 0.0000 68.9765 19.4196 42.8090 -51.4536 53.5652 -27.3394 0.0000 -0.0000 -48.9751 18.1848 -33.7239 -10.3357 7.1250 -0.0000 -0.0000 53.4670 -55.6387 -17.5060
12.9743 24.0843 3.6995 -177.8210 -5.0499 -349.0110 0.0000 0.0000 0.0000 -2.5251 -21.0868 -76.1050 8.2769 16.3192 53.5539 40.2551 9.4213 -173.2830 2.1253 9.1223 26.1786 0.0000 0.0000 0.0000 0.3967 13.3908 -86.1336 -6.4165 -14.8201 46.6311 -40.2115 -9.7560 177.8021 -0.5092 4.5741 -12.6978 2.3948 1.6726 38.3841 -0.1107 1.0986 13.5212 -1.6555 -0.7343 -3.7352 -2.1509 -0.3584 0.3167 3.6076 -2.9943 -34.9327 1.9994 -1.4952 -11.2953 0.0000 0.0000 0.0000 -75.9465 -39.0983 59.9614 36.6756 -45.9722 -16.0064 -0.0000 0.0000 -44.6057 -22.8174 -15.7159 6.5013 -7.1250 0.0000 -0.0000 -31.8053 14.0026 27.9833 0.0000 0.0000 0.0000 68.9274 18.5135 43.3765 -54.1083 54.5238 -29.4885 0.0000 -0.0000 -48.1011 18.5298 -33.8889 -10.5858 7.1250 -0.0000 -0.0000 53.9283 -55.6773 -17.7879
12.9919 24.2563 3.7805 -177.6020 -4.7842 -353.5130 0.0000 0.0000 0.0000 -2.0060 -21.3653 -76.7813 7.9225 16.0619 52.2829 40.3928 11.1215 -174.3533 2.1103 9.0921 26.0840 0.0000 0.0000 0.0000 0.8675 13.4597 -87.7356 -6.2026 -14.6219 45.7897 -40.1748 -9.7427 176.7881 -0.5958 4.9415 -13.7417 2.1982 1.6279 37.9073 -0.1178 1.2020 13.4070 -1.6032 -0.5807 -3.7121 -2.0258 -0.3247 0.5966 3.5476 -2.8466 -35.4458 1.9417 -1.3310 -11.5688 0.0000 -0.0000 0.0000 -75.9747 -38.9908 60.3917 37.8098 -46.7174 -16.8270 -0.0000 0.0000 -42.0737 -23.2291 -16.8825 7.1049 -7.1250 0.0000 -0.0000 -31.7794 12.8913 28.8735 0.0000 -0.0000 0.0000 68.7999 17.8527 43.9231 -56.1777 55.2022 -31.1809 0.0000 -0.0000 -46.2157 20.1828 -33.3036 -11.4109 7.1250 -0.0000 -0.0000 54.6697 -54.9443 -17.0756
13.0160 24.4243 3.9009 -177.3930 -4.4997 -357.6430 0.0000 0.0000 0.0000 -1.2957 -21.5929 -77.9897 7.6163 15.8297 51.1686 40.5367 12.8510 -175.3403 2.1125 9.0967 26.0981 0.0000 0.0000 0.0000 1.1970 13.5904 -89.9400 -6.0393 -14.4663 45.1394 -40.1206 -9.5585 175.6812 -0.7151 5.4043 -15.0654 1.8911 1.6236 36.7545 -0.1020 1.3361 13.3480 -1.4785 -0.3949 -3.4054 -2.0072 -0.3174 0.8392 3.5742 -2.7128 -35.9526 1.9332 -1.1650 -11.8322 0.0000 0.0000 0.0000 -76.1597 -38.9752 60.8098 38.7219 -47.2942 -17.4942 -0.0000 0.0000 -40.0603 -23.5359 -18.1649 7.7327 -7.1250 0.0000 -0.0000 -31.6844 11.6857 29.7278 0.0000 0.0000 0.0000 68.6571 17.4329 44.3839 -57.8288 55.7031 -32.5408 0.0000 -0.0000 -44.1610 22.1201 -32.1038 -12.1896 7.1250 -0.0000 -0.0000 55.0001 -53.7554 -15.4235
